/* XPM */
static char *_fa6fd26c74645aff12ea933d454315c[] = {
/* columns rows colors chars-per-pixel */
"64 64 146 2 ",
"   c #354CBF",
".  c #3C4CBB",
"X  c #3E52BF",
"o  c #554AAE",
"O  c #5C4BAB",
"+  c #5D54AF",
"@  c #4444B3",
"#  c #464AB6",
"$  c #4E4BB2",
"%  c #414EBB",
"&  c #504AB1",
"*  c #4C53B7",
"=  c #4151BC",
"-  c #4E55BB",
";  c #465DBE",
":  c #4859BB",
">  c #5351B3",
",  c #555DB6",
"<  c #5A5BB3",
"1  c #614BA9",
"2  c #436EBD",
"3  c #4C69BF",
"4  c #5469BC",
"5  c #194FC9",
"6  c #1C53CD",
"7  c #1E58CF",
"8  c #1654D0",
"9  c #1C5CD1",
"0  c #294FC6",
"q  c #2D51C6",
"w  c #2454CB",
"e  c #2853C9",
"r  c #265ACC",
"t  c #2A5BCB",
"y  c #3253C3",
"u  c #3E55C1",
"i  c #355BC5",
"p  c #3B5CC5",
"a  c #365AC8",
"s  c #395CC8",
"d  c #205BD0",
"f  c #1D61D3",
"g  c #1E68D4",
"h  c #1F71D8",
"j  c #2465C4",
"k  c #2661CF",
"l  c #2D63CD",
"z  c #2668C8",
"x  c #3662C7",
"c  c #3B65C6",
"v  c #3F69C7",
"b  c #3363CA",
"n  c #3965CB",
"m  c #356CCD",
"M  c #3B6DCA",
"N  c #297EC5",
"B  c #2570CC",
"V  c #257DCF",
"C  c #3773CF",
"Z  c #3C75CD",
"A  c #347DCA",
"S  c #3F7BCD",
"D  c #2765D0",
"F  c #276BD2",
"G  c #306FD0",
"H  c #2670D3",
"J  c #267CD4",
"K  c #2976DC",
"L  c #267BDA",
"P  c #287EDF",
"I  c #3670D0",
"U  c #3976D1",
"Y  c #347CD4",
"T  c #387DD3",
"R  c #297EE4",
"E  c #4264C2",
"W  c #4C63C1",
"Q  c #416AC6",
"!  c #4D69C0",
"~  c #416DC9",
"^  c #5166C1",
"/  c #516BC2",
"(  c #4274C3",
")  c #4C73C6",
"_  c #4175CA",
"`  c #427ACB",
"'  c #4A7BCC",
"]  c #2C83CE",
"[  c #3480CD",
"{  c #3980CF",
"}  c #2683D5",
"|  c #2C86D3",
" . c #2589D5",
".. c #2C89D6",
"X. c #2684DB",
"o. c #2981DB",
"O. c #268BDB",
"+. c #2C8DDD",
"@. c #3482D4",
"#. c #3A82D4",
"$. c #3C88D6",
"%. c #3385D8",
"&. c #338BDB",
"*. c #3B8BD9",
"=. c #2790DE",
"-. c #2B90DE",
";. c #3190DF",
":. c #068EEB",
">. c #118CE4",
",. c #1A8EE6",
"<. c #0B93EA",
"1. c #1794E7",
"2. c #1D93E5",
"3. c #1696E8",
"4. c #1C95E9",
"5. c #149CED",
"6. c #1D9AEA",
"7. c #2784E0",
"8. c #2A81E7",
"9. c #258DE1",
"0. c #2B8EE1",
"q. c #2B81EC",
"w. c #298AEA",
"e. c #2694E4",
"r. c #2994E3",
"t. c #2598E6",
"y. c #2998E7",
"u. c #2797E8",
"i. c #2B97E8",
"p. c #249AE9",
"a. c #289AEB",
"s. c #3393E1",
"d. c #2C8DF6",
"f. c #2B94F3",
"g. c #279EF1",
"h. c #299CF1",
"j. c #15A5F2",
"k. c #25A4F6",
"l. c #29A4F5",
"z. c #24A6F9",
"x. c #29A7FA",
"c. c #22ABFE",
"v. c #2BABFD",
"b. c #4881CF",
"n. c #4284D2",
"m. c None",
/* pixels */
"m.m.m.m.m.m.m.m.m.m.m.m.m.m.m.m.m.m.m.m.m.m.m.m.m.m.m.m.m.[ A #.{ A [ m.m.m.m.m.m.m.m.m.m.m.m.m.m.m.m.m.m.m.m.m.m.m.m.m.m.m.m.m.",
"m.m.m.m.m.m.m.m.m.m.m.m.m.m.m.m.m.m.m.m.m.m.m.m.m.m.m.@.%.#.A #.#.#.$.{ [ m.m.m.m.m.m.m.m.m.m.m.m.m.m.m.m.m.m.m.m.m.m.m.m.m.m.m.",
"m.m.m.m.m.m.m.m.m.m.m.m.m.m.m.m.m.m.m.m.m.m.m...;.&.#.#.` ( ` ( v ( ( ` ` S #.#.A m.m.m.m.m.m.m.m.m.m.m.m.m.m.m.m.m.m.m.m.m.m.m.",
"m.m.m.m.m.m.m.m.m.m.m.m.m.m.m.m.m.m.m.m.-.r.u.&.A m.m.m.m.m.m.m.m.m.m.m.m.m.m.2 ` { %.[ m.m.m.m.m.m.m.m.m.m.m.m.m.m.m.m.m.m.m.m.",
"m.m.m.m.m.m.m.m.m.m.m.m.m.m.m.m.m.m.r.a.t.u.m.m.m.m.m.m.m.m.m.m.m.m.m.m.m.m.m.m.m.m.` #.&...m.m.m.m.m.m.m.m.m.m.m.m.m.m.m.m.m.m.",
"m.m.m.m.m.m.m.m.m.m.m.m.m.m.m.m.=.a.t.m.m.m.m.m.m.m.m.m.m.m.m.m.m.m.m.m.m.m.m.m.m.m.m.m.m.&.i...m.m.m.m.m.m.m.m.m.m.m.m.m.m.m.m.",
"m.m.m.m.m.m.m.m.m.m.m.m.m.m.m.y.g.=.m.m.m.m.m.m.m.m.m.m.m.m.m.m.m.m.m.m.m.m.m.m.m.m.m.m.m.m.{ i.u.m.m.m.m.m.m.m.m.m.m.m.m.m.m.m.",
"m.m.m.m.m.m.m.m.m.m.m.m.m.m.g.p.m.m.m.m.m.m.m.m.m.m.m.m.m.m.m.m.m.m.m.m.m.m.m.m.m.m.m.m.m.m.m.m.r.g.m.m.m.m.m.m.m.m.m.m.m.m.m.m.",
"m.m.m.m.m.m.m.m.m.m.m.m.=.l.=.m.m.m.m.m.m.m.m.m.m.m.m.m.m.m.m.m.m.m.m.m.m.m.m.m.m.m.m.m.m.m.m.m.m.+.z.+.m.m.m.m.m.m.m.m.m.m.m.m.",
"m.m.m.m.m.m.m.m.m.m.m.t.l.m.m.m.m.m.m.m.m.m.m.m.m.m.m.m.m.m.m.m.m.m.m.m.m.m.m.m.m.m.m.m.m.m.m.m.m.m.m.z.y.m.m.m.m.m.m.m.m.m.m.m.",
"m.m.m.m.m.m.m.m.m.m.r.l.m.m.m.m.m.m.m.m.m.m.m.m.m.m.m.m.m.m.m.m.m.m.m.m.m.m.m.m.m.m.m.m.m.m.m.m.m.m.m.m.z.-.m.m.m.m.m.m.m.m.m.m.",
"m.m.m.m.m.m.m.m.m.u.l.m.m.m.m.m.m.m.m.m.m.m.m.m.m.m.m.m.m.m.m.m.m.m.m.m.m.m.m.m.m.m.m.m.m.m.m.m.m.m.m.m.m.c.u.m.m.m.m.m.m.m.m.m.",
"m.m.m.m.m.m.m.m. .v.m.m.m.m.m.m.m.m.m.m.u = = % % % % . = m.m.m.m.= : ; Z #.+.&.&.&.&.&.&.%.%.%.m.m.m.m.m.m.c.] m.m.m.m.m.m.m.m.",
"m.m.m.m.m.m.m.m.v.m.m.m.m.m.m.m.m.m.m.w 9 d 7 r 7 w 7 8 6 m.m.- 9 t l m C T &.-.t.t.t.t.p.p.t.p.+.m.m.m.m.m.m.c.m.m.m.m.m.m.m.m.",
"m.m.m.m.m.m.m.x.u.m.m.m.m.m.m.m.m.m.x D l r w w e e e w e m.m.X 7 y i c M Z #.&.-.r.r.u.e.r.r.p.m.m.m.m.m.m.m.t.x.m.m.m.m.m.m.m.",
"m.m.m.m.m.m.=.l.m.m.m.m.m.m.m.m.m._ M m D k w r e e 0 6 e m.m.= w y a p c Q Z #.&.+.r.r.r.r.6.;.m.m.m.m.m.m.m.m.x...m.m.m.m.m.m.",
"m.m.m.m.m.m.v.m.m.m.m.m.m.m.m.m.b.@.S G v m.m.m.m.m.m.m.m.m.m.% 6 y m.m.m.m.m.m.m.m.m.t.r.6.p.m.m.m.m.m.m.m.m.m.m.c.m.m.m.m.m.m.",
"m.m.m.m.m.a.u.m.m.m.m.m.m.m.m.m.9.&.Y _ m.m.m.m.m.m.m.m.m.m.m.% w y m.m.m.m.m.m.m.m.#.r.r.p.m.m.m.m.m.m.m.m.m.m.m.a.t.m.m.m.m.m.",
"m.m.m.m.m.l.m.m.m.m.m.m.m.m.m.r.6.+.@.m.m.m.m.m.m.m.m.m.m.m.m.= 6 y m.m.m.m.m.m.m.m.{ %.r.&.m.m.m.m.m.m.m.m.m.m.m.m.x.m.m.m.m.m.",
"m.m.m.m.a.O.m.m.m.m.m.m.m.m.&.6.r.9.m.m.m.m.m.m.m.m.m.m.m.m.m.= 6 y m.m.m.m.m.m.m.3 ) #.&.m.m.m.m.m.m.m.m.m.m.m.m.m...a.m.m.m.m.",
"m.m.m.m.l.m.m.m.m.m.m.m.m.m.4.u.p.n.m.m.m.m.m.m.m.m.m.m.m.m.m.= 6   m.m.m.m.m.m.< , 4 ' m.m.m.m.m.m.m.m.m.m.m.m.m.m.m.l.m.m.m.m.",
"m.m.m.=.a.m.m.m.m.m.m.m.m.r.t.t.p.m.m.m.m.m.m.m.m.m.m.m.m.m.m.= 6 q m.m.m.m.m.1 o + < 4 m.m.m.m.m.m.m.m.m.m.m.m.m.m.m.a.| m.m.m.",
"m.m.m.a.=.m.m.m.m.m.m.m.+.p.u.u.r.+.%.#.Z M b t r q m.m.m.m.m.= 6 q m.m.& . & & O O + m.m.m.m.m.m.m.m.m.m.m.m.m.m.m.m.+.u.m.m.m.",
"m.m.m.a.m.m.m.m.m.m.m.m.r.e.r.u.u.r.;.#.Z v b k r 5 s m.m.m.m.X 6 e m.m.%   @ & & o m.m.m.m.m.m.m.m.m.m.m.m.m.m.m.m.m.m.a.m.m.m.",
"m.m.O.t.m.m.m.m.m.m.m.9.u.t.t.p.t.u.;.#._ Q x t t w a m.m.m.m.X 6 0 m.m.. 0 . . @ m.m.m.m.m.m.m.m.m.m.m.m.m.m.m.m.m.m.m.a.N m.m.",
"m.m.u.O.m.m.m.m.m.m.m.Y +.+.+.&.&.&.#.` ) ! W p t w s m.m.m.m.= 6 0 m.m.m.. # $ m.m.m.m.m.m.m.m.m.m.m.m.m.m.m.m.m.m.m.m.+.+.m.m.",
"m.m.a.m.m.m.m.m.m.m.m.m.m.m.m.m.m.m.m.m.m.m.m.W r w p m.m.m.m.u 6 e m.m.m.m.m.m.m.m.m.m.m.m.m.m.m.m.m.m.m.m.m.m.m.m.m.m.m.u.m.m.",
"m.m.y.m.m.m.m.m.m.m.m.m.m.m.m.m.m.m.m.m.m.m.m.^ t r s m.m.m.m.u 8 e m.m.m.m.m.m.m.m.m.m.m.m.m.m.m.m.m.m.m.m.m.m.m.m.m.m.m.t.m.m.",
"m.O.t.m.m.m.m.m.m.m.m.m.m.m.m.m.m.m.m.m.m.m.m.^ i l x m.m.m.m.u 6 e m.m.m.m.m.m.m.m.m.m.m.m.m.m.m.m.m.m.m.m.m.m.m.m.m.m.m.r.] m.",
"m.e.r.m.m.m.m.m.m.m.m.m.m.m.m.m.m.m.m.m.m.m.m./ c l n m.m.m.m.u 6 w m.m.m.m.m.m.m.m.m.m.m.m.m.m.m.m.m.m.m.m.m.m.m.m.m.m.m.r.-.m.",
"m.t.r.m.m.m.m.m.m.m.m.m.m.m.m.m.m.m.m.m.m.m.m.) M G m m.m.m.m.p 6 w m.m.m.m.m.m.m.m.m.m.m.m.m.m.m.m.m.m.m.m.m.m.m.m.m.m.m.r.-.m.",
"m.y.r.m.m.m.m.m.m.m.m.m.m.m.m.m.m.m.m.m.m.m.m.' { Y U m.m.m.m.s 8 r m.m.m.m.m.m.m.m.m.m.m.m.m.m.m.m.m.m.m.m.m.m.m.m.m.m.m.r.u.m.",
"m.t.r.m.m.m.m.m.m.m.m.m.m.m.m.m.m.m.m.m.m.m.m.n.&.Y S m.m.m.m.n 9 r m.m.m.m.m.m.m.m.m.m.m.m.m.m.m.m.m.m.m.m.m.m.m.m.m.m.m.r.r.m.",
"m.t.r.m.m.m.m.m.m.m.m.m.m.m.m.m.m.m.m.m.m.m.m.#.e.+.$.m.m.m.m.m 9 t m.m.m.m.m.m.m.m.m.m.m.m.m.m.m.m.m.m.m.m.m.m.m.m.m.m.m.r.u.m.",
"m.t.-.m.m.m.m.m.m.m.m.m.m.m.m.m.m.m.m.m.m.m.m.$.p.0.&.m.m.m.m.I g k m.m.m.m.m.m.m.m.m.m.m.m.m.m.m.m.m.m.m.m.m.m.m.m.m.m.m.-.r.m.",
"m.O.u.m.m.m.m.m.m.m.m.m.m.m.m.m.m.m.m.m.m.m.m.$.p.e.&.m.m.m.m.Y h F m.m.m.m.m.m.m.m.m.m.m.m.m.m.m.m.m.m.m.m.m.m.m.m.m.m.m.t...m.",
"m.m.u.m.m.m.m.m.m.m.m.m.m.m.m.m.m.m.m.m.m.m.m.$.6.t.&.m.m.m.m.T L H m.m.m.m.m.m.m.m.m.m.m.m.m.m.m.m.m.m.m.m.m.m.m.m.m.m.m.p.m.m.",
"m.m.a.m.m.m.m.m.m.m.m.m.m.m.m.m.m.m.m.m.m.m.m.$.6.p.;.m.m.m.m.%.X.L m.m.m.m.m.m.m.m.m.m.m.m.m.m.m.m.m.m.m.m.m.m.m.m.m.m.m.p.m.m.",
"m.m.r. .m.m.m.m.m.m.m.m.m.m.m.m.m.m.m.m.m.m.m.$.6.e.;.m.m.m.m.O.7.o.m.m.m.m.m.m.m.m.m.m.m.m.m.m.m.m.m.m.m.m.m.m.m.m.m.m.+.r.m.m.",
"m.m. .9.m.m.m.m.m.m.m.m.m.m.m.m.m.m.m.m.m.m.m.*.p.t.;.m.m.m.1.s.>.' m.m.m.m.m.m.m.m.m.m.m.m.m.m.m.m.m.m.m.m.m.m.m.m.m.m.p...m.m.",
"m.m.m.u.m.m.m.m.m.m.m.m.m.m.m.m.m.m.m.m.m.m.m.*.e.e.r.m.m.;.6.e.>.m.m.m.m.m.m.m.m.m.m.m.m.m.m.m.m.m.m.m.m.m.m.m.m.m.m.m.a.m.m.m.",
"m.m.m.e.X.m.m.m.m.m.m.m.m.m.m.m.m.m.m.m.m.m.m.&.r.e.-.m.m.3.y.<.m.m.m.m.m.m.m.m.m.m.m.m.m.m.m.m.m.m.m.m.m.m.m.m.m.m.m.+.a.m.m.m.",
"m.m.m.O.0.m.m.m.m.m.m.m.m.m.m.m.m.m.m.m.m.m.m.&.r.e.m.m.p.t.5.$.m.m.m.m.m.m.m.m.m.m.m.m.m.m.m.m.m.m.m.m.m.m.m.m.m.m.m.a.-.m.m.m.",
"m.m.m.m.f.m.m.m.m.m.m.m.m.m.m.m.m.m.m.m.m.m.m.&.r.r.m.;.e.p.<.m.m.m.m.m.m.m.m.m.m.m.m.m.m.m.m.m.m.m.m.m.m.m.m.m.m.m.m.z.m.m.m.m.",
"m.m.m.m.e.J m.m.m.m.m.m.m.m.m.m.m.m.m.m.m.m.m.+.r.0.&.r.s.3.m.m.m.m.m.m.m.m.m.m.m.m.m.m.m.m.m.m.m.m.m.m.m.m.m.m.m.m...g.m.m.m.m.",
"m.m.m.m.m.f.m.m.m.m.m.m.m.m.m.m.m.m.m.m.m.m.m.0.e.0.0.&.3.#.m.m.m.m.m.m.m.m.m.m.m.m.m.m.m.m.m.m.m.m.m.m.m.m.m.m.m.m.z.m.m.m.m.m.",
"m.m.m.m.m.r.X.m.m.m.m.m.m.m.m.m.m.m.m.m.m.m.m.;.e.0.&.9.@.m.m.m.m.m.m.m.m.m.m.m.m.m.m.m.m.m.m.m.m.m.m.m.m.m.m.m.m.a.g.m.m.m.m.m.",
"m.m.m.m.m.m.f.m.m.m.m.m.m.m.m.m.m.m.m.m.m.m.m.0.t.r.0.+.m.m.m.m.m.m.m.m.m.m.m.m.m.m.& & m.m.$ & m.m.m.m.m.m.m.m.m.c.m.m.m.m.m.m.",
"m.m.m.m.m.m. .w.m.m.m.m.m.m.m.m.m.m.m.m.m.m.m.&.p.r.2.' m.:.+.0.m.+.m.%.m.m.: * $ m.$ $ m.$ $ $ m.m.m.m.m.m.m.m.k.+.m.m.m.m.m.m.",
"m.m.m.m.m.m.m.f.L m.m.m.m.m.m.m.m.m.m.m.m.m.m.0.t.6.&.m.,.r.r.0.r.+.m.%.U Q ; * $ m.m.& & $ $ m.m.m.m.m.m.m.m.r.c.m.m.m.m.m.m.m.",
"m.m.m.m.m.m.m.m.d.m.m.m.m.m.m.m.m.m.m.m.m.m.m.+.t.4.m.m.2.r.r.m.r.0.m.&.U M E m.$ $ m.$ $ $ $ m.m.m.m.m.m.m.m.c.m.m.m.m.m.m.m.m.",
"m.m.m.m.m.m.m.m.V d.m.m.m.m.m.m.m.m.m.m.m.m.m.r.j.' m.m.r.e.m.m.t.0.m.+.@.U Q m.> $ m.$ m.& $ m.m.m.m.m.m.m.c.| m.m.m.m.m.m.m.m.",
"m.m.m.m.m.m.m.m.m.X.8.m.m.m.m.m.m.m.m.m.m.m.m.6.6.m.m.m.r.r.m.m.0.u.+.+.@.U ~ m.> $ $ $ m.m.$ $ m.m.m.m.m.z.t.m.m.m.m.m.m.m.m.m.",
"m.m.m.m.m.m.m.m.m.m.J q.m.m.m.m.m.m.m.m.m.m.m.m.m.m.m.m.9.r.m.m.m.0.m.0.m.m.~ m.> m.m.& m.m.$ m.m.m.m.m.k.-.m.m.m.m.m.m.m.m.m.m.",
"m.m.m.m.m.m.m.m.m.m.m.P R m.m.m.m.m.m.m.m.m.m.m.m.m.m.m.m.m.m.m.m.m.m.m.m.m.m.m.m.m.m.m.m.m.m.m.m.m.m.z.a.m.m.m.m.m.m.m.m.m.m.m.",
"m.m.m.m.m.m.m.m.m.m.m.m.V q.j m.m.m.m.m.m.m.m.m.m.m.m.m.m.m.m.m.m.m.m.m.m.m.m.m.m.m.m.m.m.m.m.m.m...z.+.m.m.m.m.m.m.m.m.m.m.m.m.",
"m.m.m.m.m.m.m.m.m.m.m.m.m.m.8.H m.m.m.m.m.m.m.m.m.m.m.m.m.m.m.m.m.m.m.m.m.m.m.m.m.m.m.m.m.m.m.m.r.k.m.m.m.m.m.m.m.m.m.m.m.m.m.m.",
"m.m.m.m.m.m.m.m.m.m.m.m.m.m.m.P K j m.m.m.m.m.m.m.m.m.m.m.m.m.m.m.m.m.m.m.m.m.m.m.m.m.m.m.m.+.a.t.m.m.m.m.m.m.m.m.m.m.m.m.m.m.m.",
"m.m.m.m.m.m.m.m.m.m.m.m.m.m.m.m.V R K m.m.m.m.m.m.m.m.m.m.m.m.m.m.m.m.m.m.m.m.m.m.m.m.m.m.u.a.+.m.m.m.m.m.m.m.m.m.m.m.m.m.m.m.m.",
"m.m.m.m.m.m.m.m.m.m.m.m.m.m.m.m.m.m.J 8.K H m.m.m.m.m.m.m.m.m.m.m.m.m.m.m.m.m.m.m.m.r.r.a.+.m.m.m.m.m.m.m.m.m.m.m.m.m.m.m.m.m.m.",
"m.m.m.m.m.m.m.m.m.m.m.m.m.m.m.m.m.m.m.m.J P P K B m.m.m.m.m.m.m.m.m.m.m.m.m.m.+.u.u.-.r.m.m.m.m.m.m.m.m.m.m.m.m.m.m.m.m.m.m.m.m.",
"m.m.m.m.m.m.m.m.m.m.m.m.m.m.m.m.m.m.m.m.m.m.m.} 7.7.o.o.o.J  .} } O. .=.u.r.r.u.+.m.m.m.m.m.m.m.m.m.m.m.m.m.m.m.m.m.m.m.m.m.m.m.",
"m.m.m.m.m.m.m.m.m.m.m.m.m.m.m.m.m.m.m.m.m.m.m.m.m.m.m.X.9.9.9.e.u.r.e.-.=.m.m.m.m.m.m.m.m.m.m.m.m.m.m.m.m.m.m.m.m.m.m.m.m.m.m.m.",
"m.m.m.m.m.m.m.m.m.m.m.m.m.m.m.m.m.m.m.m.m.m.m.m.m.m.m.m.m. .=.r.t.=.=.m.m.m.m.m.m.m.m.m.m.m.m.m.m.m.m.m.m.m.m.m.m.m.m.m.m.m.m.m."
};
