/* XPM */
static char *_704451c6fad4774ff3443abe6a357cf[] = {
/* columns rows colors chars-per-pixel */
"16 16 58 1 ",
"  c #5D30A2",
". c #6039A3",
"X c #364CBE",
"o c #3E4BB9",
"O c #5540AA",
"+ c #5D54AE",
"@ c #2249C6",
"# c #2E4FC4",
"$ c #2950C7",
"% c #2F50C4",
"& c #2750C8",
"* c #2759CA",
"= c #3D53C0",
"- c #3B69C9",
"; c #3E7BC8",
": c #3C7FCC",
"> c #2869D3",
", c #286ED1",
"< c #257ED1",
"1 c #2A77DD",
"2 c #415DC0",
"3 c #4563C2",
"4 c #4468C6",
"5 c #2A88D3",
"6 c #2687DA",
"7 c #218EDB",
"8 c #278EDC",
"9 c #288FD9",
"0 c #3285D5",
"q c #3E81D1",
"w c #3586D8",
"e c #358ADA",
"r c #358BDB",
"t c #3089DC",
"y c #318FDD",
"u c #3590DD",
"i c #3491DF",
"p c #3796DE",
"a c #1B91E8",
"s c #1C9BED",
"d c #2691E2",
"f c #2695E3",
"g c #2794E4",
"h c #2992E2",
"j c #2993E3",
"k c #2A93E3",
"l c #2896E6",
"z c #2897E6",
"x c #2397E8",
"c c #2897E8",
"v c #249DE9",
"b c #259FEB",
"n c #219EEC",
"m c #3095E0",
"M c #1AA1EE",
"N c #1FA4F0",
"B c #4180D4",
"V c None",
/* pixels */
"VVVVVVV:;VVVVVVV",
"VVVVMVVVVVV0VVVV",
"VVVbVVVVVVVVkVVV",
"VVnVV@&V=wNzVVVV",
"V7VVeVVVoVqzVV5V",
"VVVsp4VVX.+VVVVV",
"VVVcu2$V%VVVVVVV",
"fVVVVV-V#VVVVVVk",
"zVVVVVyV*VVVVVVk",
"VVVVVVVVBVVVVVVV",
"VVVVVVmmVVVVVVVV",
"V<VVVVdeVVVVVV9V",
"VV1VVVtax3O VVVV",
"VVV>VVVVVVVVbVVV",
"VVVV,VVVVVVVVVVV",
"VVVVVVV68VVVVVVV"
};
