/* XPM */
static char *_e74039e4838463aaf0db7a09c860e26[] = {
/* columns rows colors chars-per-pixel */
"32 32 208 2 ",
"   c #553DAB",
".  c #3A49BA",
"X  c #3E4BBB",
"o  c #5A43A9",
"O  c #5E53AD",
"+  c #4548B5",
"@  c #4F49B2",
"#  c #4D4AB2",
"$  c #4F4AB2",
"%  c #4E4CB3",
"&  c #504AB1",
"*  c #514AB1",
"=  c #504AB2",
"-  c #4C52B7",
";  c #475EBD",
":  c #4F6ABE",
">  c #1B54CC",
",  c #344DC1",
"<  c #2851C7",
"1  c #2B50C6",
"2  c #2A51C6",
"3  c #2852C7",
"4  c #2D51C5",
"5  c #2C53C7",
"6  c #2251C9",
"7  c #2352CB",
"8  c #2651C8",
"9  c #2552C9",
"0  c #2654C9",
"q  c #2654CA",
"w  c #2755CA",
"e  c #2054CC",
"r  c #2557CD",
"t  c #2855C9",
"y  c #265BCC",
"u  c #2A59CA",
"i  c #2A5CCB",
"p  c #3454C4",
"a  c #335DC6",
"s  c #3A5CC4",
"d  c #2A67CD",
"f  c #3461C6",
"g  c #3763C8",
"h  c #3C6DCA",
"j  c #237ACC",
"k  c #3F76C6",
"l  c #3F70CA",
"z  c #3974CD",
"x  c #3F78C8",
"c  c #387CCA",
"v  c #2161D2",
"b  c #2668D2",
"n  c #286DD2",
"m  c #2771D2",
"M  c #2773D3",
"N  c #2776D6",
"B  c #2679D5",
"V  c #257AD4",
"C  c #277AD5",
"Z  c #267DD6",
"A  c #247ADA",
"S  c #277DD8",
"D  c #3078D1",
"F  c #367BD3",
"G  c #387BD2",
"H  c #297BE0",
"J  c #287CE0",
"K  c #4863C0",
"L  c #426AC6",
"P  c #4A6DC4",
"I  c #4373C2",
"U  c #4078CA",
"Y  c #2982CD",
"T  c #2D84CF",
"R  c #3381CF",
"E  c #3480CD",
"W  c #2687D4",
"Q  c #2587D6",
"!  c #2A87D3",
"~  c #2C85D0",
"^  c #2A88D3",
"/  c #2B88D5",
"(  c #2A8BD7",
")  c #2B8BD7",
"_  c #2780DA",
"`  c #2687DD",
"'  c #258AD8",
"]  c #258BD9",
"[  c #2689DB",
"{  c #278CDB",
"}  c #258EDB",
"|  c #268BDC",
" . c #268CDC",
".. c #268DDC",
"X. c #258FDD",
"o. c #268EDC",
"O. c #268FDD",
"+. c #2A8BD8",
"@. c #2B8BD8",
"#. c #2D8BD9",
"$. c #2A8ADD",
"%. c #2889DE",
"&. c #2A8ADE",
"*. c #298FDC",
"=. c #298EDD",
"-. c #2A8FDD",
";. c #288FDF",
":. c #2A8FDE",
">. c #2B8FDE",
",. c #2C8FDD",
"<. c #2D8DDF",
"1. c #2E8DDF",
"2. c #2D8FDE",
"3. c #2C8FDF",
"4. c #3282D0",
"5. c #3483D3",
"6. c #3282D7",
"7. c #3782D6",
"8. c #3484D4",
"9. c #3486D6",
"0. c #3786D7",
"q. c #3881D1",
"w. c #3882D1",
"e. c #3982D4",
"r. c #318ADB",
"t. c #318BDB",
"y. c #328ADA",
"u. c #3788D8",
"i. c #328CDC",
"p. c #388BD9",
"a. c #2A90DD",
"s. c #3191DE",
"d. c #188AE4",
"f. c #0F98EE",
"g. c #1B93E5",
"h. c #1D94EA",
"j. c #189AEB",
"k. c #1F9BE9",
"l. c #1B9EEC",
"z. c #1C9EED",
"x. c #059DF0",
"c. c #119FF0",
"v. c #2986E5",
"b. c #218FE4",
"n. c #2A8FE1",
"m. c #2E8FE0",
"M. c #2793E3",
"N. c #2794E2",
"B. c #2794E3",
"V. c #2792E5",
"C. c #2693E5",
"Z. c #2097E6",
"A. c #2397E7",
"S. c #2494E4",
"D. c #2794E4",
"F. c #2795E4",
"G. c #2796E4",
"H. c #2696E5",
"J. c #2495E6",
"K. c #2796E6",
"L. c #2797E6",
"P. c #2697E7",
"I. c #2891E0",
"U. c #2991E1",
"Y. c #2B90E0",
"T. c #2993E0",
"R. c #2891E2",
"E. c #2992E2",
"W. c #2892E3",
"Q. c #2B93E2",
"!. c #2C90E0",
"~. c #2D91E1",
"^. c #2C92E0",
"/. c #2894E2",
"(. c #2994E3",
"). c #2B94E2",
"_. c #2A95E2",
"`. c #2B94E3",
"'. c #2894E4",
"]. c #2994E4",
"[. c #2895E4",
"{. c #2B95E4",
"}. c #2896E4",
"|. c #2996E4",
" X c #2996E5",
".X c #2897E7",
"XX c #269BE4",
"oX c #259AE6",
"OX c #2998E6",
"+X c #2897E9",
"@X c #2399E8",
"#X c #2599E8",
"$X c #259AE8",
"%X c #229CEA",
"&X c #229DEA",
"*X c #219EED",
"=X c #289AE9",
"-X c #289BEB",
";X c #2A9FEF",
":X c #15A1F1",
">X c #1FAAF7",
",X c #23A2ED",
"<X c #23A0F1",
"1X c #25A1F1",
"2X c #25A1F3",
"3X c #2AA2F3",
"4X c #488AD6",
"5X c None",
/* pixels */
"5X5X5X5X5X5X5X5X5X5X5X5X5X5XR q.q.E 5X5X5X5X5X5X5X5X5X5X5X5X5X5X",
"5X5X5X5X5X5X5X5X5X5X=.#.8.U 5X5X5X5XI k c 4.5X5X5X5X5X5X5X5X5X5X",
"5X5X5X5X5X5X5X5X{.D.$X5X5X5X5X5X5X5X5X5X5Xx 5.a.5X5X5X5X5X5X5X5X",
"5X5X5X5X5X5X5XD.A.5X5X5X5X5X5X5X5X5X5X5X5X5X5Xy.I.5X5X5X5X5X5X5X",
"5X5X5X5X5X5X;X5X5X5X5X5X5X5X5X5X5X5X5X5X5X5X5X5X5X<X5X5X5X5X5X5X",
"5X5X5X5X5X=X5X5X5X5X5X5X5X5X5X5X5X5X5X5X5X5X5X5X5X5X*X5X5X5X5X5X",
"5X5X5X5X3X5X5X5X5X5Xq 5 4 6 5X5Xp g G ~.}.D._.~.5X5X5X1X5X5X5X5X",
"5X5X5XD.5X5X5X5X5Xd v r q e 5X5Xq s L e._.{.&X$X5X5X5X5X_.5X5X5X",
"5X5X5X=X5X5X5X5Xi.D 5X5X5X5X5X5X3 5X5X5X5Xi.z.5X5X5X5X5X}.5X5X5X",
"5X5XM.5X5X5X5X~.j.5X5X5X5X5X5X5X5 5X5X5X5X8.2.5X5X5X5X5X5Xa.5X5X",
"5X5XW 5X5X5X5X:Xp.5X5X5X5X5X5X5X8 5X5X5XO P 5X5X5X5X5X5X5XT 5X5X",
"5XI.5X5X5X5XD.&X{.0.l i w 5X5X5X3 5X+ + o 5X5X5X5X5X5X5X5X5X/ 5X",
"5X] 5X5X5X5XI.{.D.u.P a > 5X5X5X3 5X, . 5X5X5X5X5X5X5X5X5X5X^ 5X",
"....5X5X5X5X5X5X5X5X5X5Xi 5X5X5X7 5X5X5X5X5X5X5X5X5X5X5X5X5X/ Y ",
"F...5X5X5X5X5X5X5X5X5X5Xf 5X5X5X8 5X5X5X5X5X5X5X5X5X5X5X5X5X+.a.",
"L.M.5X5X5X5X5X5X5X5X5X5Xz 5X5X5Xr 5X5X5X5X5X5X5X5X5X5X5X5X5XD.{.",
"-X..5X5X5X5X5X5X5X5X5X5Xt.5X5X5Xy 5X5X5X5X5X5X5X5X5X5X5X5X5X=.=X",
"D.] 5X5X5X5X5X5X5X5X5X5XD.5X5X5Xb 5X5X5X5X5X5X5X5X5X5X5X5X5X/ ].",
"....5X5X5X5X5X5X5X5X5X5X@X5X5X5XA 5X5X5X5X5X5X5X5X5X5X5X5X5X=./ ",
"5XQ 5X5X5X5X5X5X5X5X5X5X@X5X5Xg.&.5X5X5X5X5X5X5X5X5X5X5X5X5X+.5X",
"5X..5X5X5X5X5X5X5X5X5X5Xg.5X5Xx.5X5X5X5X5X5X5X5X5X5X5X5X5X5Xa.5X",
"5X5Xj 5X5X5X5X5X5X5X5X5XM.4X:X=.5X5X5X5X5X5X5X5X5X5X5X5X5X~ 5X5X",
"5X5X&.5X5X5X5X5X5X5X5X5X~.M.2.5X5X5X5X5X5X5X5X5X5X5X5X5X5X{.5X5X",
"5X5X5X_ 5X5X5X5X5X5X5X5XD.&.5X5X5X5X5X5X5X5X5X5X5X5X5X5X{.5X5X5X",
"5X5X5X` 5X5X5X5X5X5X5X5Xk.7.d.f.2.5Xl - * # # $ 5X5X5X5XD.5X5X5X",
"5X5X5X5Xv.5X5X5X5X5X5Xl.s.5Xh.{.{.n.F ; * * # * 5X5X5X2X5X5X5X5X",
"5X5X5X5X5XH 5X5X5X5X5X5X5X5Xb.5X5Xn.6.K 5X5X5X  5X5X,X5X5X5X5X5X",
"5X5X5X5X5X5XJ 5X5X5X5X5X5X5X5X5X5X5X5X5X5X5X5X5X5X>X5X5X5X5X5X5X",
"5X5X5X5X5X5X5XN n 5X5X5X5X5X5X5X5X5X5X5X5X5X5XoXoX5X5X5X5X5X5X5X",
"5X5X5X5X5X5X5X5XS M m 5X5X5X5X5X5X5X5X5X5X{._.{.5X5X5X5X5X5X5X5X",
"5X5X5X5X5X5X5X5X5X5XS B B B 5X5X5X5X=.~.a.2.5X5X5X5X5X5X5X5X5X5X",
"5X5X5X5X5X5X5X5X5X5X5X5X5X5X| D.D...5X5X5X5X5X5X5X5X5X5X5X5X5X5X"
};
